<svg version="1.1" xmlns="http://www.w3.org/2000/svg" xmlns:xlink="http://www.w3.org/1999/xlink" width="177.5" height="139.5" viewBox="0,0,177.5,139.5"><g transform="translate(-151.25,-110.25)"><g data-paper-data="{&quot;isPaintingLayer&quot;:true}" fill-rule="nonzero" stroke-linecap="butt" stroke-linejoin="miter" stroke-miterlimit="10" stroke-dasharray="" stroke-dashoffset="0" style="mix-blend-mode: normal"><path d="M174,184c0,5.52284 -4.47716,10 -10,10c-5.52284,0 -10,-4.47716 -10,-10c0,-5.52284 4.47716,-10 10,-10c5.52284,0 10,4.47716 10,10z" fill="#ffef00" stroke="#000000" stroke-width="5.5"/><path d="M313,180c0,37.00308 -32.90707,67 -73.5,67c-40.59293,0 -73.5,-29.99692 -73.5,-67c0,-37.00308 32.90707,-67 73.5,-67c40.59293,0 73.5,29.99692 73.5,67z" fill="#ffef00" stroke="#000000" stroke-width="5.5"/><path d="M326,181c0,5.52284 -4.47715,10 -10,10c-5.52285,0 -10,-4.47716 -10,-10c0,-5.52284 4.47715,-10 10,-10c5.52285,0 10,4.47716 10,10z" fill="#ffef00" stroke="#000000" stroke-width="5.5"/><path d="M212,167c0,7.73199 -5.8203,14 -13,14c-7.1797,0 -13,-6.26801 -13,-14c0,-7.73199 5.8203,-14 13,-14c7.1797,0 13,6.26801 13,14z" fill="#ffffff" stroke="#000000" stroke-width="5.5"/><text transform="translate(191.6,162.57808) scale(0.13534,0.13534)" font-size="40" xml:space="preserve" fill="#000000" fill-rule="nonzero" stroke="none" stroke-width="1" stroke-linecap="butt" stroke-linejoin="miter" stroke-miterlimit="10" stroke-dasharray="" stroke-dashoffset="0" font-family="Sans Serif" font-weight="normal" text-anchor="start" style="mix-blend-mode: normal"><tspan x="0" dy="0">good</tspan><tspan x="0" dy="46.15px">lemon</tspan><tspan x="0" dy="46.15px">inc.</tspan></text></g></g></svg>